<?xml version="1.0" encoding="iso-8859-1"?>
<!-- Generator: Adobe Illustrator 19.0.0, SVG Export Plug-In . SVG Version: 6.00 Build 0)  -->
<svg version="1.1" id="Layer_1" xmlns="http://www.w3.org/2000/svg" xmlns:xlink="http://www.w3.org/1999/xlink" x="0px" y="0px"
	 viewBox="0 0 512 512" style="enable-background:new 0 0 512 512;fill: white" xml:space="preserve">
<g>
	<g>
		<rect x="133.565" y="256" width="33.391" height="33.391"/>
	</g>
</g>
<g>
	<g>
		<g>
			<polygon points="133.564,289.391 100.173,289.391 100.173,333.913 33.39,333.913 33.39,367.304 0,367.304 0,478.609 
				33.391,478.609 33.391,367.304 100.173,367.304 133.564,367.304 133.564,333.913 			"/>
			<rect x="133.564" y="367.304" width="33.391" height="33.391"/>
		</g>
	</g>
</g>
<g>
	<g>
		<rect x="478.609" y="367.304" width="33.391" height="111.304"/>
	</g>
</g>
<g>
	<g>
		<rect x="33.39" y="478.609" width="445.217" height="33.391"/>
	</g>
</g>
<g>
	<g>
		<g>
			<rect x="345.042" y="256" width="33.391" height="33.391"/>
			<rect x="378.434" y="133.565" width="33.391" height="122.435"/>
			<polygon points="411.825,333.913 411.825,289.391 378.434,289.391 378.434,333.913 378.434,367.304 478.608,367.304 
				478.608,333.913 			"/>
		</g>
	</g>
</g>
<g>
	<g>
		<rect x="345.043" y="367.304" width="33.391" height="33.391"/>
	</g>
</g>
<g>
	<g>
		<rect x="411.826" y="66.783" width="33.391" height="33.391"/>
	</g>
</g>
<g>
	<g>
		<rect x="445.217" y="33.391" width="33.391" height="33.391"/>
	</g>
</g>
<g>
	<g>
		<rect x="178.087" y="66.783" width="33.391" height="33.391"/>
	</g>
</g>
<g>
	<g>
		<rect x="144.696" y="33.391" width="33.391" height="33.391"/>
	</g>
</g>
<g>
	<g>
		<polygon points="244.868,222.609 244.868,133.565 211.477,133.565 211.477,222.609 166.955,222.609 166.955,256 345.042,256 
			345.042,222.609 		"/>
	</g>
</g>
<g>
	<g>
		<rect x="244.87" y="100.174" width="133.565" height="33.391"/>
	</g>
</g>
<g>
	<g>
		<rect x="289.391" width="33.391" height="66.783"/>
	</g>
</g>
<g>
	<g>
		<rect x="445.217" y="155.826" width="66.783" height="33.391"/>
	</g>
</g>
<g>
	<g>
		<rect x="111.304" y="155.826" width="66.783" height="33.391"/>
	</g>
</g>
<g>
</g>
<g>
</g>
<g>
</g>
<g>
</g>
<g>
</g>
<g>
</g>
<g>
</g>
<g>
</g>
<g>
</g>
<g>
</g>
<g>
</g>
<g>
</g>
<g>
</g>
<g>
</g>
<g>
</g>
</svg>
