<?xml version="1.0" encoding="iso-8859-1"?>
<!-- Generator: Adobe Illustrator 19.0.0, SVG Export Plug-In . SVG Version: 6.00 Build 0)  -->
<svg version="1.1" id="Layer_1" xmlns="http://www.w3.org/2000/svg" xmlns:xlink="http://www.w3.org/1999/xlink" x="0px" y="0px"
	 viewBox="0 0 512 512" style="enable-background:new 0 0 512 512;" xml:space="preserve">
<g>
	<g>
		<rect x="155.826" y="89.044" width="33.391" height="33.391"/>
	</g>
</g>
<g>
	<g>
		<rect x="322.783" y="233.739" width="33.391" height="33.391"/>
	</g>
</g>
<g>
	<g>
		<rect x="33.391" y="389.565" width="33.391" height="33.391"/>
	</g>
</g>
<g>
	<g>
		<rect x="189.217" y="55.652" width="133.565" height="33.391"/>
	</g>
</g>
<g>
	<g>
		<g>
			<polygon points="155.826,122.435 122.435,122.435 122.435,200.348 66.783,200.348 66.783,233.739 122.435,233.739 
				155.826,233.739 155.826,200.348 			"/>
			<rect x="155.826" y="233.739" width="33.391" height="33.391"/>
		</g>
	</g>
</g>
<g>
	<g>
		<g>
			<rect y="267.13" width="33.391" height="122.435"/>
			<rect x="33.391" y="233.739" width="33.391" height="33.391"/>
		</g>
	</g>
</g>
<g>
	<g>
		<g>
			<rect x="322.783" y="89.044" width="33.391" height="33.391"/>
			<polygon points="389.565,200.348 389.565,122.435 356.174,122.435 356.174,200.348 356.174,233.739 445.217,233.739 
				445.217,200.348 			"/>
		</g>
	</g>
</g>
<g>
	<g>
		<rect x="445.217" y="389.565" width="33.391" height="33.391"/>
	</g>
</g>
<g>
	<g>
		<rect x="445.217" y="233.739" width="33.391" height="33.391"/>
	</g>
</g>
<g>
	<g>
		<rect x="478.609" y="267.13" width="33.391" height="122.435"/>
	</g>
</g>
<g>
	<g>
		<rect x="66.783" y="422.957" width="378.435" height="33.391"/>
	</g>
</g>
<g>
</g>
<g>
</g>
<g>
</g>
<g>
</g>
<g>
</g>
<g>
</g>
<g>
</g>
<g>
</g>
<g>
</g>
<g>
</g>
<g>
</g>
<g>
</g>
<g>
</g>
<g>
</g>
<g>
</g>
</svg>
