<?xml version="1.0" encoding="iso-8859-1"?>
<!-- Generator: Adobe Illustrator 19.0.0, SVG Export Plug-In . SVG Version: 6.00 Build 0)  -->
<svg version="1.1" id="Layer_1" xmlns="http://www.w3.org/2000/svg" xmlns:xlink="http://www.w3.org/1999/xlink" x="0px" y="0px"
	 viewBox="0 0 512 512" style="enable-background:new 0 0 512 512;" xml:space="preserve">
<g>
	<g>
		<rect x="267.13" y="445.217" width="33.391" height="33.391"/>
	</g>
</g>
<g>
	<g>
		<polygon points="233.739,478.609 233.739,445.217 233.739,411.826 166.957,411.826 166.957,378.435 166.957,345.043 
			133.565,345.043 133.565,378.435 133.565,411.826 133.565,445.217 200.348,445.217 200.348,512 233.739,512 267.13,512 
			267.13,478.609 		"/>
	</g>
</g>
<g>
	<g>
		<polygon points="300.522,378.435 300.522,345.043 267.13,345.043 267.13,378.435 267.13,411.826 300.522,411.826 300.522,445.217 
			333.913,445.217 333.913,411.826 333.913,378.435 		"/>
	</g>
</g>
<g>
	<g>
		<rect x="300.522" y="311.652" width="33.391" height="33.391"/>
	</g>
</g>
<g>
	<g>
		<rect x="155.826" y="33.391" width="33.391" height="33.391"/>
	</g>
</g>
<g>
	<g>
		<rect x="33.391" y="144.696" width="33.391" height="33.391"/>
	</g>
</g>
<g>
	<g>
		<rect x="33.391" y="278.261" width="33.391" height="33.391"/>
	</g>
</g>
<g>
	<g>
		<rect x="189.217" width="133.565" height="33.391"/>
	</g>
</g>
<g>
	<g>
		<g>
			<rect x="155.826" y="144.696" width="33.391" height="33.391"/>
			<polygon points="155.826,66.783 122.435,66.783 122.435,111.304 66.783,111.304 66.783,144.696 122.435,144.696 155.826,144.696 
				155.826,111.304 			"/>
		</g>
	</g>
</g>
<g>
	<g>
		<rect y="178.087" width="33.391" height="100.174"/>
	</g>
</g>
<g>
	<g>
		<g>
			<polygon points="389.565,111.304 389.565,66.783 356.174,66.783 356.174,111.304 356.174,144.696 445.217,144.696 
				445.217,111.304 			"/>
			<rect x="322.783" y="33.391" width="33.391" height="33.391"/>
		</g>
	</g>
</g>
<g>
	<g>
		<rect x="66.783" y="311.652" width="33.391" height="33.391"/>
	</g>
</g>
<g>
	<g>
		<rect x="400.696" y="311.652" width="44.522" height="33.391"/>
	</g>
</g>
<g>
	<g>
		<g>
			<rect x="445.217" y="144.696" width="33.391" height="33.391"/>
			<rect x="478.609" y="178.087" width="33.391" height="100.174"/>
		</g>
	</g>
</g>
<g>
	<g>
		<rect x="322.783" y="144.696" width="33.391" height="33.391"/>
	</g>
</g>
<g>
	<g>
		<rect x="445.217" y="278.261" width="33.391" height="33.391"/>
	</g>
</g>
<g>
	<g>
		<polygon points="166.957,211.478 166.957,244.87 166.957,311.652 166.957,345.043 200.348,345.043 200.348,311.652 
			200.348,244.87 333.913,244.87 333.913,311.652 367.304,311.652 367.304,244.87 367.304,211.478 		"/>
	</g>
</g>
<g>
	<g>
		<rect x="66.783" y="445.217" width="33.391" height="33.391"/>
	</g>
</g>
<g>
	<g>
		<rect x="33.391" y="478.609" width="33.391" height="33.391"/>
	</g>
</g>
<g>
	<g>
		<rect x="133.565" y="478.609" width="33.391" height="33.391"/>
	</g>
</g>
<g>
	<g>
		<rect x="367.304" y="378.435" width="33.391" height="33.391"/>
	</g>
</g>
<g>
	<g>
		<rect x="33.391" y="378.435" width="33.391" height="33.391"/>
	</g>
</g>
<g>
	<g>
		<rect y="411.826" width="33.391" height="33.391"/>
	</g>
</g>
<g>
	<g>
		<rect x="478.609" y="378.435" width="33.391" height="33.391"/>
	</g>
</g>
<g>
	<g>
		<rect x="445.217" y="411.826" width="33.391" height="33.391"/>
	</g>
</g>
<g>
	<g>
		<rect x="411.826" y="445.217" width="33.391" height="33.391"/>
	</g>
</g>
<g>
	<g>
		<rect x="378.435" y="478.609" width="33.391" height="33.391"/>
	</g>
</g>
<g>
</g>
<g>
</g>
<g>
</g>
<g>
</g>
<g>
</g>
<g>
</g>
<g>
</g>
<g>
</g>
<g>
</g>
<g>
</g>
<g>
</g>
<g>
</g>
<g>
</g>
<g>
</g>
<g>
</g>
</svg>
